<svg xmlns="http://www.w3.org/2000/svg" viewBox="0 0 949 1689"><path d="M858.293 5.657c30.364 1.679 60.256 3.314 90.494 4.967V285.13h-5.556c-59.165 0-118.332-.237-177.495.108-26.697.155-53.116 3.137-78.696 11.592-43.108 14.248-67.864 44.104-74.833 88.584-2.156 13.759-3.178 27.824-3.255 41.757-.34 61.664-.147 123.33-.147 184.995v4.762H928.62c-1.694 12.778-3.29 25.093-4.965 37.398-4.512 33.145-9.061 66.285-13.59 99.428a284742.82 284742.82 0 0 0-13.708 100.42c-2.764 20.282-5.727 40.542-8.103 60.87-.565 4.838-2.474 5.443-6.592 5.439-88.664-.094-177.328-.072-265.992-.072h-6.857v767.652H278.978V920.557H.293V617.198H278.87v-6.378c0-74.164-.562-148.335.16-222.492.702-72.202 16.181-140.92 52.92-203.889 34.172-58.569 82.247-102.445 142.333-133.396 47.077-24.25 97.266-38.177 149.592-45.272C663.323.422 702.925.318 742.568 1.228c29.785.683 59.558 1.915 89.333 2.989 8.645.312 17.28.922 26.392 1.44Z"/></svg>
