<svg xmlns="http://www.w3.org/2000/svg" width="1478" height="1673"><path fill="#fff" d="m205 1561-31-26-34-31A536 536 0 0 1 2 1190l-2-94a413 413 0 0 1 49-186c20-37 39-73 65-106a507 507 0 0 1 426-196l58 6v283c-12-3-25-7-37-8-16-2-32-2-48-1-22 2-44 5-65 9a288 288 0 0 0-156 138 290 290 0 0 0-26 118 268 268 0 0 0 44 128c11 16 24 30 39 42a307 307 0 0 0 120 62c13 4 27 5 40 6h30c15-2 30-5 44-9 36-12 69-29 99-51 23-17 42-38 57-63a272 272 0 0 0 35-140V0h292c2 113 39 212 119 293 80 80 179 115 292 117v287c0 4-1 6-6 6-17-1-35 0-52-2l-77-11a613 613 0 0 1-218-80c-22-13-43-28-64-42l-3-1v577a545 545 0 0 1-38 199c-15 35-34 69-58 100l-29 39c-16 20-33 38-52 54l-46 38a496 496 0 0 1-239 95c-33 5-66 4-99 3-21-1-41-5-62-7a562 562 0 0 1-228-104h-1Z"/></svg>