<svg xmlns="http://www.w3.org/2000/svg" width="1789" height="1808"><path d="M1078 2a710 710 0 0 0-294 93 662 662 0 0 0-218 206 683 683 0 0 0-96 533l5 20-196 196-204 206a344 344 0 0 0-73 254 343 343 0 0 0 381 295c66-9 122-34 172-75l206-204 194-194 20 5a677 677 0 0 0 814-505l-179 47-180 48c-2 1-301-247-301-249l68-184 67-183 178-47 180-49-2-4A683 683 0 0 0 1078 2ZM362 1357c22 5 40 15 56 31 24 25 36 57 32 92-5 49-40 89-88 98-15 4-44 2-56-2-38-12-65-39-77-77-3-9-3-13-3-32 0-21 0-22 4-35 13-38 45-66 84-75 11-3 36-2 48 0Z"/></svg>