<svg xmlns="http://www.w3.org/2000/svg" width="1658" height="1658"><path fill="#fff" d="m1588 1449 34-74 1-4c24-67 35-136 35-207a167824 167824 0 0 1-1-670 549 549 0 0 0-40-225c-21-53-56-96-94-138-41-44-92-74-148-95-64-24-130-35-199-35H488a622 622 0 0 0-217 40A433 433 0 0 0 32 297C11 359 1 422 1 488v678a607 607 0 0 0 43 228c22 53 57 97 96 137 42 44 94 73 151 93 64 23 131 33 199 33h677c57 0 112-7 167-22 41-12 82-26 117-52l77-60c25-21 45-45 60-74ZM1444 280c25 38 39 81 48 125 5 27 7 55 7 83v676c0 48-8 95-27 140-9 22-23 41-35 62-9 13-18 26-29 38-29 31-67 50-107 64-44 15-90 22-136 22H489c-49 0-97-8-143-26-19-8-37-20-55-31-14-9-27-18-40-29-15-12-27-27-37-44-23-34-36-72-45-112-7-31-10-62-10-94V481c0-50 8-98 27-144 7-19 19-36 30-53 9-15 19-29 30-42 13-17 29-29 47-40 38-23 80-37 123-45 29-5 57-7 85-7h663c51 0 101 8 148 27 17 6 32 16 47 26 17 10 32 22 49 33 14 13 26 28 36 44Z"/><path fill="#feffff" d="M947 1235a405 405 0 0 1-292-22 430 430 0 0 1-248-370c-3-116 34-216 112-302a416 416 0 0 1 563-48 422 422 0 0 1 168 373 432 432 0 0 1-293 365l-10 4m153-369a270 270 0 0 0-106-254 269 269 0 0 0-362 29 273 273 0 1 0 468 225Zm102-409a96 96 0 0 1-29-71c1-43 31-81 73-91a97 97 0 0 1 120 85c4 43-21 80-55 96a95 95 0 0 1-107-17l-2-2Z"/></svg>