<svg xmlns="http://www.w3.org/2000/svg" width="1667" height="1658"><path fill="#d54736" d="m92 459 17-32A825 825 0 0 1 456 97c76-40 157-67 242-82l84-10a667 667 0 0 1 182 4 771 771 0 0 1 247 70 818 818 0 0 1 179 113l28 24-242 238c-12-10-24-21-37-30a466 466 0 0 0-300-94 508 508 0 0 0-466 340l-3-2-168-127-77-58-33-24Z"/><path fill="#459551" d="m1413 1457-4 3a757 757 0 0 1-268 152 870 870 0 0 1-275 44 862 862 0 0 1-578-207 828 828 0 0 1-196-249l3-2 124-93 96-72 30-23 1-1 2-1 1-1 1-1 2-1 1-1 1-1 2-1 1-1 1-1 2-1 1-1 1-1 2-1 1-1 1-1 1-1 2-1 1-1 1-1 4 4a506 506 0 0 0 500 336 552 552 0 0 0 264-79l3 2 262 196 9 8Z"/><path fill="#3e77e4" d="m1413 1457-9-8-262-196-3-2c17-13 34-25 50-39 60-53 99-119 117-198l3-13H850V682h801l4 23a1071 1071 0 0 1 7 228c-5 56-14 112-30 167a766 766 0 0 1-219 357Z"/><path fill="#f1ca48" d="m345 1011-30 22-96 72-124 93-3 2-25-53c-25-57-42-115-53-175-4-24-6-49-9-73a804 804 0 0 1 87-440l33 24 77 58 168 127 3 2-13 49c-7 27-11 54-12 82v64c3 41 11 80 24 118l-1 7-1 1-1 1-2 1-1 1-1 1-1 1-2 1-1 1-1 1-2 1-1 1-1 1-2 1-1 1-1 1-2 1-1 1-1 1-2 1-1 2Z"/></svg>