<svg xmlns="http://www.w3.org/2000/svg" viewBox="0 0 1594 1596" fill="#c92818">
  <path d="M1441 1323a98 98 0 0 1-81 72l-41 1h-23v122a74 74 0 0 1-73 77h-109c-17-1-31-9-43-20a74 74 0 0 1-24-56v-123H548v124c0 44-36 76-75 75H373a74 74 0 0 1-74-75v-124h-56a99 99 0 0 1-94-101V798H75c-37 0-69-28-74-65a75 75 0 0 1 74-84h74V100A100 100 0 0 1 250 1h1095a99 99 0 0 1 101 103v544h69c32 1 57 14 72 44 5 10 6 21 6 32 1 19-6 35-19 50a71 71 0 0 1-56 24h-73v496c0 10-2 19-4 29M401 709l-8 25c-3 9-3 18 0 28 6 20 24 36 47 36h715l7-1c32-6 49-34 39-65l-118-394c-7-25-25-38-51-38l-469-1c-26 0-45 19-50 38l-37 122-75 250m-47 490c13 29 36 46 68 47h111c41-7 70-42 64-86-5-34-34-61-68-62H414c-45 6-78 54-60 101m687-94a74 74 0 0 0 26 141h106l17-2a74 74 0 0 0-13-146h-102c-11 0-22 2-34 7Z"/>
</svg>
