<svg xmlns="http://www.w3.org/2000/svg" width="1956" height="1630"><path fill="#d5b340" d="M1 967V855h776v137c0 19 14 34 33 34h336c20 0 32-12 32-32V855h776v637a137 137 0 0 1-140 137H136c-17 0-33-5-48-12a139 139 0 0 1-87-124V967Zm1602-754c5 16 6 33 6 49v93h204a142 142 0 0 1 141 143v271h-776v-34l-1-9c-2-13-11-21-23-23l-11-1H812c-17 0-36 13-35 35v32H1V497c0-24 6-46 18-66a151 151 0 0 1 129-76h198V254c2-59 27-105 73-140a173 173 0 0 1 108-34h183V31c0-17 10-29 28-30h479c21 0 35 14 35 35v44h181c85 0 151 59 170 133M433 247l-1 11v97h1091v-4a65864 65864 0 0 0 0-104c-6-43-44-75-87-75h-184v39c0 5-1 10-3 14-6 13-16 20-31 20H737c-14-2-24-10-27-23v-50H527l-18 1c-37 6-70 34-76 74Z"/></svg>