<svg xmlns="http://www.w3.org/2000/svg" width="1554" height="1541"><g fill="#fff"><path d="M0 1246V643h1551v814c0 45-37 82-81 82H83c-43 0-79-32-82-75l-1-13v-205m401-407H193v212h212V841l-4-2m110 162v50h212V839H511v162m318-80v130h212V839H829v82m330 130h199V839h-211v212h12m-944 302h190v-212H193v212h22m296-22v22h212v-212H511v190m331-190h-13v212h212v-212H842m306 0-1 5v207h211v-212h-210ZM662 576H0V238a83 83 0 0 1 84-84h221v113a137 137 0 1 0 273 0l1-113h394v115c2 58 29 100 82 124a136 136 0 0 0 191-124l1-115h220a83 83 0 0 1 84 81v341H662Z"/><path d="m1049 281-1-13V65a62 62 0 1 1 124 0v202c0 32-22 59-53 63a62 62 0 0 1-70-49Zm-631 45c-24-12-37-30-38-56V62a62 62 0 0 1 124 3v201c1 44-42 77-86 60Z"/></g></svg>