<svg xmlns="http://www.w3.org/2000/svg" width="733" height="110" viewBox="50 620 3150 470">
<path fill="#eec747" d="m2652 886 77-225c3-8 3-16-5-21-4-3-2-6-2-10l5-1h75c15 1 20 5 20 21l2 116 3 264c0 11-1 21 9 28 2 1 1 6 1 9h-72c-13-1-17-4-17-17l1-93 1-120 1-59-1-6-101 295h-56l-17-301h-1l-3 6a378265 378265 0 0 0-73 267c-2 11 0 15 11 20 1 5 0 8-6 8h-61c-15 0-19-6-15-20l25-85 88-292 4-13c1-7-1-13-7-17l-4-2 3-9h78c12 1 16 4 17 16l4 42 8 144 4 55v6l2 1 2-7m160 152"/>
<path fill="#eec747" d="m848 966 32-162 27-138 1-4c1-10 1-19-10-24l2-9h75c7 0 12 4 14 11l5 12 54 188 4 11 8-39a75496 75496 0 0 0 30-156c0-6-1-12-7-16-4-2-3-5-2-10l7-1a11334 11334 0 0 1 66 1c7 1 10 5 10 12l-1 9-40 207-39 200-2 9h-39c-8-1-13-5-16-12l-7-19-62-220-3-9-3 5-42 211-1 11c-2 10-1 19 9 25l-2 7-3 1h-65c-13-1-17-5-16-18l8-44 8-39m1516 4c-6 14-12 27-19 39-18 32-46 51-81 59-31 8-63 8-95 2a98 98 0 0 1-81-88c-4-26-3-52 0-78a752 752 0 0 1 58-211c21-42 56-64 103-69a280 280 0 0 1 98 7c28 10 46 29 55 58 6 20 8 42 7 63-3 75-19 147-45 218m-111 20c11-5 19-14 24-24 5-9 10-19 13-28 17-53 28-106 35-161 2-14 3-29 1-44-3-24-16-39-38-42-26-4-47 3-63 24-9 13-16 27-21 42-14 47-25 94-32 141-2 19-4 38-2 57 3 26 17 41 41 43 14 1 28 0 42-8m-1736 61c-23-18-33-42-37-69s-3-53 0-79a747 747 0 0 1 58-211c21-42 57-63 103-68a276 276 0 0 1 101 8c30 11 47 34 54 65 6 28 6 55 3 83a747 747 0 0 1-55 217c-23 47-62 71-113 75-25 3-50 2-75-4-14-3-27-8-39-17m75-55 7 1c30 4 56-4 72-33l11-26c15-48 26-97 34-148 2-18 5-37 2-56-3-25-16-40-39-43-25-4-47 4-62 25-10 13-16 27-21 42-14 46-25 92-32 140-2 19-4 38-2 58 2 18 10 33 30 40M443 667l-32 162-40 205c-2 10-1 19 9 25l-2 8h-75c-14 0-18-5-15-19l13-71 23-115c-8-2-91-3-108-1l-7 37-26 133-1 4c-1 10-1 19 10 24l-3 8h-79c-8-2-12-6-12-15l2-13 47-237 26-135 2-12c0-6-1-11-6-15-5-2-3-6-2-11h71l9 1c8 1 11 5 11 13l-3 21-23 116-1 9h107l9-46 16-84c1-7 0-14-7-19-2-2-2-6-3-10l9-1h66l6 1c9 1 13 4 12 13l-3 24"/>
<path fill="#eec747" d="M3200 700c-1 21-4 41-10 61-7 26-19 48-46 61l10 6c18 9 27 25 28 45 2 20-1 40-4 60a385 385 0 0 1-28 97 69 69 0 0 1-57 36l-18 1h-170c-10-1-14-7-13-17l5-21 63-324 9-47c1-7 0-14-7-18-4-3-2-6-1-11h10l156 1c10 0 21 1 31 3 23 6 36 22 40 45l2 22m-216 254c-3 16-12 27-3 40 11 16 76 7 102-5 17-8 22-89 26-100 6-17-13-48-98-33-13 2-23 77-26 93m127-252c-23-4-46-2-69-2-6 32-13 63-18 95h47l18-2c13-2 22-9 27-21 6-12 9-25 10-39 1-5 0-10-1-15-1-8-5-13-14-16Z"/>
<path fill="#eec747" d="M1374 1067h-180c-10-2-15-7-13-17l8-42 53-270 15-77c2-8 2-16-7-22-2-1-1-5-2-9h232l-11 49c-2 9-9 14-19 15l-13 1h-105l-19 95h126l-5 26-6 27c-3 14-7 18-21 18h-87c-13 1-21 7-24 19l-7 32-14 74-1 6 7 1h100l9-1c11 0 19-4 25-14 1-4 3-7 8-5l1 3a16799 16799 0 0 1-15 71c-4 15-9 19-25 20h-10"/>
<path fill="#eec747" d="m1642 1047 6 9c5 4 4 7 1 11h-75c-13-1-17-6-15-19l6-32 23-117-1-15-47-220-2-5c-1-10-5-18-17-21l2-8 5-1 69 1c13 0 17 3 19 15l14 76 15 83 1 4 4-5 67-140 2-4c5-12 4-14-7-21l2-8h77c11 0 15 7 12 17l-6 13-120 225c-6 10-10 21-12 32l-22 114-1 16"/>
<path fill="#eec747" d="M1916 1072c-23-1-46-1-68-6-20-4-35-16-45-34-8-16-12-33-13-50-2-32 1-65 6-97a946 946 0 0 1 56-200c18-36 47-54 86-55l108-1h23l1 2-10 50c-3 10-9 15-19 16l-12 1h-59c-26 1-44 12-54 37-11 29-20 59-26 89l-15 90c-2 16-4 32-1 49 3 21 14 33 35 34h80c16-1 27-8 34-22 3-4 5-7 11-5l-1 6-13 63-2 7c-4 14-13 22-27 24l-22 2h-53m95-64"/>
<path fill="#df9934" d="m2677 859 9-27c3-8 3-8 12-8h18l-10 31-26 76-39 113c-2 6-5 9-11 8h-22l-1-3-3-41-4-60v-2l-2-56-4-49v-16h35l3 26 2 38c0 8 1 8 9 9l9 2c9 1 11 0 13-8l12-33Zm135 180 2 11c-7 3-39 3-52 1l3-225c7-2 33-3 44-1l1 9v24l2 181Zm-320-29c-5 13-9 26-8 42h-42l2-10 35-115 27-93c3-9 4-10 13-10h22v6l-27 100-22 80Z"/>
<path fill="#df9934" d="M1065 1052h-15c-8 0-11-2-14-10l-8-29-28-101-23-80-1-7 6-1h39c5 0 8 1 9 7l5 18c2 5 4 7 9 7h21l5-24c2-7 2-8 10-8h33l1 8-13 63-19 98-10 52c-1 3-2 7-7 7Z"/>
<path fill="#df9934" d="m886 848 5-24h43l-1 12-33 166-8 49h-45l1-11 28-138 10-54Zm1227 165c-7-12-10-25-11-38l-2-40 5-48 9-51 3-11h54l-8 40-7 55-2 21c0 12 2 24 6 35 8 22 28 35 51 36 16 0 31 0 45-7 17-8 29-22 37-38 9-16 14-34 19-52l17-72 4-18h53v10l-20 84c-7 27-17 52-29 76-16 31-41 50-74 59l-33 4-14 2c-22-1-44-2-65-11-17-8-29-19-38-36ZM766 890c-8 28-15 55-26 81-10 23-21 45-41 61-16 13-35 21-55 24-10 2-21 3-31 3-29 1-57-1-82-16a85 85 0 0 1-37-63c-2-14-3-29-2-43 1-21 4-42 7-62l7-41 3-9h53l-1 12-11 62-4 30c-1 16 0 32 6 48 8 19 22 31 42 34a83 83 0 0 0 96-53c11-27 17-55 24-84l11-49h53c-1 22-8 43-12 65Zm-575 25a7211 7211 0 0 0-19 100l-6 37h-50c-4-8-1-15 1-22l29-151 11-53c7-2 222-3 238-1v10l-27 139-11 57-2 20h-52v-10l21-103 15-81v-10H205l-14 68Z"/>
<path fill="#df9934" d="m2926 954 18-89 6-34c1-5 3-7 8-7h147l6 1 38 16c12 7 18 19 19 33 1 22-2 44-6 65-3 22-8 44-16 65-4 11-9 22-18 31a54 54 0 0 1-39 17h-175l-6-1c0-17 6-32 8-49l10-48m180 6 7-31c2-13 5-27 5-40-1-26-16-42-40-43h-77l-3 2-6 36-24 116 1 8h31c19-1 39 2 58-2 18-3 32-10 39-27l9-19Zm-1760 92h-147l-2-1-1-7 17-82a27339 27339 0 0 0 25-130c1-5 3-8 8-8h168l3 1v2c-3 19-3 19-23 19h-66l-21 3c-10 2-15 9-20 17-7 12-8 25-11 37l-19 98-1 7h73l72-1 1 7-4 20c-3 13-9 18-23 18h-29Z"/>
<path fill="#df9934" d="M1597 824h36l6 29h2l11-20c2-7 7-10 14-9h27l-7 14-21 38c-8 14-12 29-15 44l-15 75-9 57h-52v-12l15-73 14-72c1-6-1-12-2-17l-10-47c-1-5 0-7 6-7Zm413 184-6 35c-2 8-7 12-14 13l-24 2h-51c-20-2-41-1-62-6-20-4-33-15-41-34-5-14-9-30-8-46 1-17 0-35 2-52l16-93 2-2h50v9l-14 77c-2 15-2 29-2 44 1 13 4 25 12 36 6 9 14 15 24 18 7 2 15 3 22 3h58a141 141 0 0 0 36-4Z"/>
<path fill="#eec747" d="m3105 961-8 18c-7 17-21 24-39 27-19 4-39 1-58 2h-31l-1-8 24-116 6-36 3-2h77c24 1 39 17 40 43 0 13-3 27-5 40l-8 32m-113-6-7 37 5 1 58-1c21 0 34-10 41-29 8-22 13-45 14-68s-8-34-31-35h-61l-19 95Z"/>
</svg>
