<svg xmlns="http://www.w3.org/2000/svg" width="5222" height="5040"><path fill="#f5d12f" d="m2691 2096 70 40c3 2 5 5 5 9v168c0 5-2 7-6 9l-92 54-52 30c-4 3-8 2-12-1l-72-41-70-41c-6-3-7-7-7-13v-165c0-4 1-7 4-8l112-65 33-19c4-2 7-3 11-1l74 43 2 1Zm-310-11-50-28-45-26c-4-2-7-5-7-11l1-166c0-4 1-7 5-10l146-84h8l72 42 54 31 22 13c2 1 4 4 4 6v170c0 4-2 7-5 9l-104 59-41 24c-4 2-7 2-11 0l-49-29Zm-46 1141-50-29c-4-2-5-5-5-9v-168c0-4 1-6 4-8l105-60 42-25c3-2 6-2 9 0l147 85c3 2 4 4 4 7v170c0 4-2 7-6 8l-112 66-33 18c-3 2-7 1-10 0l-77-45-18-10Z"/><path fill="#f5d12f" d="M1773 3493c-4-2-9-4-12-7-2-1-4-4-4-6v-170c0-2 1-4 3-5l34-20 34-20 34-19 44-26c3-2 6-2 9-1l52 30 53 31 41 23c3 2 4 4 4 8v168c1 4-1 6-4 8l-59 34-49 29-37 21h-9l-37-22-45-25-33-20-19-11Z"/><path fill="#f5d12f" d="M2241 1953v68c0 5-2 8-5 10l-114 65-31 18c-4 3-8 2-11 0l-98-56-47-28c-4-2-5-4-5-8v-167c0-5 1-8 6-11l105-61 41-23c2-1 4-2 7 0l77 44 70 41c3 2 5 4 5 8v100Zm-352 584v68c0 5-2 8-5 10l-114 65-31 18c-4 3-8 2-11 0l-98-56-47-28c-4-2-5-4-5-8v-167c0-5 1-8 6-11l105-61 41-23c2-1 4-2 7 0l77 44 70 41c3 2 5 4 5 8v100Zm352 582v68c0 5-2 8-5 10l-114 65-31 18c-4 3-8 2-11 0l-98-56-47-28c-4-2-5-4-5-8v-167c0-5 1-8 6-11l105-61 41-23c2-1 4-2 7 0l77 44 70 41c3 2 5 4 5 8v100Z"/><path fill="#f5d12f" d="M2123 571c-4-2-9-4-12-7-2-1-4-4-4-6V388c0-2 1-4 3-5l34-20 34-20 34-19 44-26c3-2 6-2 9-1l52 30 53 31 41 23c3 2 4 4 4 8v168c1 4-1 6-4 8l-59 34-49 29-37 21h-9l-37-22-45-25-33-20-19-11Zm-1 1756c-4-2-9-4-12-7-2-1-4-4-4-6v-170c0-2 1-4 3-5l34-20 34-20 34-19 44-26c3-2 6-2 9-1l52 30 53 31 41 23c3 2 4 4 4 8v168c1 4-1 6-4 8l-59 34-49 29-37 21h-9l-37-22-45-25-33-20-19-11Zm1051-586c-4-2-9-4-12-7-2-1-4-4-4-6v-170c0-2 1-4 3-5l34-20 34-20 34-19 44-26c3-2 6-2 9-1l52 30 53 31 41 23c3 2 4 4 4 8v168c1 4-1 6-4 8l-59 34-49 29-37 21h-9l-37-22-45-25-33-20-19-11Zm176 295c-4-2-9-4-12-7-2-1-4-4-4-6v-170c0-2 1-4 3-5l34-20 34-20 34-19 44-26c3-2 6-2 9-1l52 30 53 31 41 23c3 2 4 4 4 8v168c1 4-1 6-4 8l-59 34-49 29-37 21h-9l-37-22-45-25-33-20-19-11Z"/><path fill="#f5d12f" d="M3466 2744v151c0 5-2 9-6 11l-106 61-38 22c-4 3-7 2-11 0l-63-36-84-49c-1-1-3-3-3-5v-169c0-5 1-8 6-11l79-46 67-38h7l101 58 47 27c3 2 4 5 4 9v15Zm-1472-96-60-35c-3-2-4-4-4-8v-169c0-3 1-6 4-8l59-34 66-37 22-13c4-2 7-2 10 0l71 41 70 41 4 2c4 2 5 5 5 9v168c0 4-1 6-5 8l-120 70-26 15c-3 2-6 2-9 0l-72-41-15-9Zm835 610-40 24c-2 1-6 1-8-1l-90-52-56-32c-4-2-5-4-5-8v-168c0-5 1-7 5-10l122-70 25-14h7l67 38 66 38 16 10c2 1 3 5 3 7v167c0 6-2 8-6 11l-82 47-24 13Zm554-1166 77 44c4 2 6 5 6 10v166c0 5-2 8-6 11l-69 39-70 41c-8 5-13 5-21 0l-64-37-55-32-21-12c-4-2-5-4-5-8v-169c0-4 1-6 4-8l54-31 54-31 38-22c4-3 8-2 12 0l66 39Zm-488 312 40 23c4 3 6 6 6 11v167c0 4-1 6-4 8l-92 53-55 32c-3 2-6 2-9 0l-93-54-53-30c-4-3-5-5-5-9v-160c0-18-3-12 13-21l101-59 36-21c4-2 7-2 10 0l74 42 31 18Zm-90-166v-92c0-5 1-8 5-10l90-52 55-31c3-3 7-3 11-1l82 48 63 37c3 1 5 3 5 7v170c0 3-2 6-4 7l-53 31-60 34-36 21h-6l-72-42-75-43c-4-2-6-5-6-10l1-74Zm-140 723-50 29c-4 2-6 1-10-1l-60-34-59-34-27-16c-3-2-4-4-4-8v-167c0-5 2-9 7-11l97-57 48-27h7l75 43 59 34 12 7c4 2 6 6 6 10v166c0 5-1 8-6 11l-54 31-41 24Zm451-100v34c0 5-2 8-6 11l-48 28-88 50c-3 2-7 5-11 6h-6l-68-39-56-32-25-15c-2-1-3-4-3-6v-169c0-4 1-7 5-9l66-38 80-47c3-2 6-1 9 0l53 31 93 54c4 2 5 5 5 10v131Zm-700 19v17c0 4-1 6-4 8l-66 38-81 46c-3 2-6 3-9 1l-59-35-37-21-51-29c-3-2-4-5-4-8v-166c0-6 2-10 7-13l92-52 52-31h8l85 49 59 34c6 3 8 7 8 14v148Zm-463-496-38 22c-4 2-6 2-9 0l-45-25-66-38-36-21c-3-2-4-5-4-9v-169c0-4 1-6 4-7l111-64 34-20c4-3 8-3 12 0l76 44 69 40c3 1 5 3 5 7v169c0 5-2 7-6 9l-107 62Zm566 5 60 35c9 5 12 10 12 20v160c0 5-1 8-5 10l-67 38-75 44c-6 3-11 4-17 0l-50-29-37-21-56-33c-3-1-4-4-4-8v-168c0-5 2-7 5-9l103-60 42-24c4-2 7-2 11 0l74 43 4 2Zm632 302-13 8c-1 1-4 0-6-1l-62-35-56-32-31-18c-2-2-3-5-3-7v-170c0-4 1-6 5-8l53-31 91-52c5-3 8-3 13 0l60 34 73 43 10 5c4 2 6 5 6 10v168c0 4-1 7-6 9l-89 52-45 25Zm63-619-72 41c-5 3-8 3-13 1l-102-59-42-25c-4-2-6-4-5-8v-166c0-6 1-9 6-12l98-57 47-27c3-2 6-1 9 0l85 50 61 35c3 2 5 4 5 7v169c0 6-3 8-8 11l-69 40Zm77 1090v25c0 5-2 8-6 10l-67 39-71 41-7 4c-3 1-7 2-9 0l-63-36-71-41-13-8-4-7v-167c0-5 1-8 6-11l108-63 38-21h7l66 38 81 46c4 3 5 5 5 10v141Zm-1536-298-1-133c0-6 2-9 7-12l59-34 76-44c4-2 7-5 11-6h7l53 31 59 34 37 21 3 4v171c0 4-1 7-5 9l-60 35-71 41-16 9c-2 1-6 1-8-1l-81-46-66-38c-3-2-4-5-4-8v-33Zm1184-1017 2 6v169c0 4-2 7-5 8l-101 58-44 26c-4 3-7 2-11 0l-145-84c-4-1-5-4-5-8v-169c0-4 1-6 4-8l92-53 56-32c3-2 5-1 8 0l72 42 77 45Z"/><path fill="#f5d12f" d="M4575 3496c-4-2-9-4-12-7-2-1-4-4-4-6v-170c0-2 1-4 3-5l34-20 34-20 34-19 44-26c3-2 6-2 9-1l52 30 53 31 41 23c3 2 4 4 4 8v168c1 4-1 6-4 8l-59 34-49 29-37 21h-9l-37-22-45-25-33-20-19-11ZM1417 1741c-4-2-9-4-12-7-2-1-4-4-4-6v-170c0-2 1-4 3-5l34-20 34-20 34-19 44-26c3-2 6-2 9-1l52 30 53 31 41 23c3 2 4 4 4 8v168c1 4-1 6-4 8l-59 34-49 29-37 21h-9l-37-22-45-25-33-20-19-11Zm1056 0c-4-2-9-4-12-7-2-1-4-4-4-6v-170c0-2 1-4 3-5l34-20 34-20 34-19 44-26c3-2 6-2 9-1l52 30 53 31 41 23c3 2 4 4 4 8v168c1 4-1 6-4 8l-59 34-49 29-37 21h-9l-37-22-45-25-33-20-19-11ZM1417 3497c-4-2-9-4-12-7-2-1-4-4-4-6v-170c0-2 1-4 3-5l34-20 34-20 34-19 44-26c3-2 6-2 9-1l52 30 53 31 41 23c3 2 4 4 4 8v168c1 4-1 6-4 8l-59 34-49 29-37 21h-9l-37-22-45-25-33-20-19-11Zm1405-1c-4-2-9-4-12-7-2-1-4-4-4-6v-170c0-2 1-4 3-5l34-20 34-20 34-19 44-26c3-2 6-2 9-1l52 30 53 31 41 23c3 2 4 4 4 8v168c1 4-1 6-4 8l-59 34-49 29-37 21h-9l-37-22-45-25-33-20-19-11Zm-700-1755c-4-2-9-4-12-7-2-1-4-4-4-6v-170c0-2 1-4 3-5l34-20 34-20 34-19 44-26c3-2 6-2 9-1l52 30 53 31 41 23c3 2 4 4 4 8v168c1 4-1 6-4 8l-59 34-49 29-37 21h-9l-37-22-45-25-33-20-19-11Z"/><path fill="#f5d12f" d="m937 2096 70 40c3 2 5 5 5 9v168c0 5-2 7-6 9l-92 54-52 30c-4 3-8 2-12-1l-72-41-70-41c-6-3-7-7-7-13v-165c0-4 1-7 4-8l112-65 33-19c4-2 7-3 11-1l74 43 2 1Zm-310-11-50-28-45-26c-4-2-7-5-7-11l1-166c0-4 1-7 5-10l146-84h8l72 42 54 31 22 13c2 1 4 4 4 6v170c0 4-2 7-5 9l-104 59-41 24c-4 2-7 2-11 0l-49-29Zm-46 1141-50-29c-4-2-5-5-5-9v-168c0-4 1-6 4-8l105-60 42-25c3-2 6-2 9 0l147 85c3 2 4 4 4 7v170c0 4-2 7-6 8l-112 66-33 18c-3 2-7 1-10 0l-77-45-18-10Zm-94-1273v68c0 5-2 8-5 10l-114 65-31 18c-4 3-8 2-11 0l-98-56-47-28c-4-2-5-4-5-8v-167c0-5 1-8 6-11l105-61 41-23c2-1 4-2 7 0l77 44 70 41c3 2 5 4 5 8v100Zm0 1166v68c0 5-2 8-5 10l-114 65-31 18c-4 3-8 2-11 0l-98-56-47-28c-4-2-5-4-5-8v-167c0-5 1-8 6-11l105-61 41-23c2-1 4-2 7 0l77 44 70 41c3 2 5 4 5 8v100Z"/><path fill="#f5d12f" d="M1596 3789c-4-2-9-4-12-7-2-1-4-4-4-6v-170c0-2 1-4 3-5l34-20 34-20 34-19 44-26c3-2 6-2 9-1l52 30 53 31 41 23c3 2 4 4 4 8v168c1 4-1 6-4 8l-59 34-49 29-37 21h-9l-37-22-45-25-33-20-19-11Zm1-587c-4-2-9-4-12-7-2-1-4-4-4-6v-170c0-2 1-4 3-5l34-20 34-20 34-19 44-26c3-2 6-2 9-1l52 30 53 31 41 23c3 2 4 4 4 8v168c1 4-1 6-4 8l-59 34-49 29-37 21h-9l-37-22-45-25-33-20-19-11Zm-877 291c-4-2-9-4-12-7-2-1-4-4-4-6v-170c0-2 1-4 3-5l34-20 34-20 34-19 44-26c3-2 6-2 9-1l52 30 53 31 41 23c3 2 4 4 4 8v168c1 4-1 6-4 8l-59 34-49 29-37 21h-9l-37-22-45-25-33-20-19-11Zm2805-1752c-4-2-9-4-12-7-2-1-4-4-4-6v-170c0-2 1-4 3-5l34-20 34-20 34-19 44-26c3-2 6-2 9-1l52 30 53 31 41 23c3 2 4 4 4 8v168c1 4-1 6-4 8l-59 34-49 29-37 21h-9l-37-22-45-25-33-20-19-11Zm-2458 0c-4-2-9-4-12-7-2-1-4-4-4-6v-170c0-2 1-4 3-5l34-20 34-20 34-19 44-26c3-2 6-2 9-1l52 30 53 31 41 23c3 2 4 4 4 8v168c1 4-1 6-4 8l-59 34-49 29-37 21h-9l-37-22-45-25-33-20-19-11Z"/><path fill="#f5d12f" d="M1712 2744v151c0 5-2 9-6 11l-106 61-38 22c-4 3-7 2-11 0l-63-36-84-49c-1-1-3-3-3-5v-169c0-5 1-8 6-11l79-46 67-38h7l101 58 47 27c3 2 4 5 4 9v15Zm-1472-96-60-35c-3-2-4-4-4-8v-169c0-3 1-6 4-8l59-34 66-37 22-13c4-2 7-2 10 0l71 41 70 41 4 2c4 2 5 5 5 9v168c0 4-1 6-5 8l-120 70-26 15c-3 2-6 2-9 0l-72-41-15-9Zm835 610-40 24c-2 1-6 1-8-1l-90-52-56-32c-4-2-5-4-5-8v-168c0-5 1-7 5-10l122-70 25-14h7l67 38 66 38 16 10c2 1 3 5 3 7v167c0 6-2 8-6 11l-82 47-24 13Zm554-1166 77 44c4 2 6 5 6 10v166c0 5-2 8-6 11l-69 39-70 41c-8 5-13 5-21 0l-64-37-55-32-21-12c-4-2-5-4-5-8v-169c0-4 1-6 4-8l54-31 54-31 38-22c4-3 8-2 12 0l66 39Zm-488 312 40 23c4 3 6 6 6 11v167c0 4-1 6-4 8l-92 53-55 32c-3 2-6 2-9 0l-93-54-53-30c-4-3-5-5-5-9v-160c0-18-3-12 13-21l101-59 36-21c4-2 7-2 10 0l74 42 31 18Zm-90-166v-92c0-5 1-8 5-10l90-52 55-31c3-3 7-3 11-1l82 48 63 37c3 1 5 3 5 7v170c0 3-2 6-4 7l-53 31-60 34-36 21h-6l-72-42-75-43c-4-2-6-5-6-10l1-74Zm-140 723-50 29c-4 2-6 1-10-1l-60-34-59-34-27-16c-3-2-4-4-4-8v-167c0-5 2-9 7-11l97-57 48-27h7l75 43 59 34 12 7c4 2 6 6 6 10v166c0 5-1 8-6 11l-54 31-41 24Zm451-100v34c0 5-2 8-6 11l-48 28-88 50c-3 2-7 5-11 6h-6l-68-39-56-32-25-15c-2-1-3-4-3-6v-169c0-4 1-7 5-9l66-38 80-47c3-2 6-1 9 0l53 31 93 54c4 2 5 5 5 10v131Zm-700 19v17c0 4-1 6-4 8l-66 38-81 46c-3 2-6 3-9 1l-59-35-37-21-51-29c-3-2-4-5-4-8v-166c0-6 2-10 7-13l92-52 52-31h8l85 49 59 34c6 3 8 7 8 14v148Zm-463-496-38 22c-4 2-6 2-9 0l-45-25-66-38-36-21c-3-2-4-5-4-9v-169c0-4 1-6 4-7l111-64 34-20c4-3 8-3 12 0l76 44 69 40c3 1 5 3 5 7v169c0 5-2 7-6 9l-107 62Zm566 5 60 35c9 5 12 10 12 20v160c0 5-1 8-5 10l-67 38-75 44c-6 3-11 4-17 0l-50-29-37-21-56-33c-3-1-4-4-4-8v-168c0-5 2-7 5-9l103-60 42-24c4-2 7-2 11 0l74 43 4 2Zm632 302-13 8c-1 1-4 0-6-1l-62-35-56-32-31-18c-2-2-3-5-3-7v-170c0-4 1-6 5-8l53-31 91-52c5-3 8-3 13 0l60 34 73 43 10 5c4 2 6 5 6 10v168c0 4-1 7-6 9l-89 52-45 25Zm63-619-72 41c-5 3-8 3-13 1l-102-59-42-25c-4-2-6-4-5-8v-166c0-6 1-9 6-12l98-57 47-27c3-2 6-1 9 0l85 50 61 35c3 2 5 4 5 7v169c0 6-3 8-8 11l-69 40Zm77 1090v25c0 5-2 8-6 10l-67 39-71 41-7 4c-3 1-7 2-9 0l-63-36-71-41-13-8-4-7v-167c0-5 1-8 6-11l108-63 38-21h7l66 38 81 46c4 3 5 5 5 10v141ZM1 2864l-1-133c0-6 2-9 7-12l59-34 76-44c4-2 7-5 11-6h7l53 31 59 34 37 21 3 4v171c0 4-1 7-5 9l-60 35-71 41-16 9c-2 1-6 1-8-1l-81-46-66-38c-3-2-4-5-4-8v-33Zm1184-1017 2 6v169c0 4-2 7-5 8l-101 58-44 26c-4 3-7 2-11 0l-145-84c-4-1-5-4-5-8v-169c0-4 1-6 4-8l92-53 56-32c3-2 5-1 8 0l72 42 77 45Z"/><path fill="#f5d12f" d="M720 1741c-4-2-9-4-12-7-2-1-4-4-4-6v-170c0-2 1-4 3-5l34-20 34-20 34-19 44-26c3-2 6-2 9-1l52 30 53 31 41 23c3 2 4 4 4 8v168c1 4-1 6-4 8l-59 34-49 29-37 21h-9l-37-22-45-25-33-20-19-11Zm-352 586c-4-2-9-4-12-7-2-1-4-4-4-6v-170c0-2 1-4 3-5l34-20 34-20 34-19 44-26c3-2 6-2 9-1l52 30 53 31 41 23c3 2 4 4 4 8v168c1 4-1 6-4 8l-59 34-49 29-37 21h-9l-37-22-45-25-33-20-19-11Zm1403-586c-4-2-9-4-12-7-2-1-4-4-4-6v-170c0-2 1-4 3-5l34-20 34-20 34-19 44-26c3-2 6-2 9-1l52 30 53 31 41 23c3 2 4 4 4 8v168c1 4-1 6-4 8l-59 34-49 29-37 21h-9l-37-22-45-25-33-20-19-11Z"/><path fill="#f5d12f" d="m2692 340 70 40c3 2 5 5 5 9v168c0 5-2 7-6 9l-92 54-52 30c-4 3-8 2-12-1l-72-41-70-41c-6-3-7-7-7-13V389c0-4 1-7 4-8l112-65 33-19c4-2 7-3 11-1l74 43 2 1Zm-310-11-50-28-45-26c-4-2-7-5-7-11l1-166c0-4 1-7 5-10l146-84h8l72 42 54 31 22 13c2 1 4 4 4 6v170c0 4-2 7-5 9l-104 59-41 24c-4 2-7 2-11 0l-49-29Zm-46 1141-50-29c-4-2-5-5-5-9v-168c0-4 1-6 4-8l105-60 42-25c3-2 6-2 9 0l147 85c3 2 4 4 4 7v170c0 4-2 7-6 8l-112 66-33 18c-3 2-7 1-10 0l-77-45-18-10Zm-94-1273v68c0 5-2 8-5 10l-114 65-31 18c-4 3-8 2-11 0l-98-56-47-28c-4-2-5-4-5-8V99c0-5 1-8 6-11l105-61 41-23c2-1 4-2 7 0l77 44 70 41c3 2 5 4 5 8v100Zm0 1166v68c0 5-2 8-5 10l-114 65-31 18c-4 3-8 2-11 0l-98-56-47-28c-4-2-5-4-5-8v-167c0-5 1-8 6-11l105-61 41-23c2-1 4-2 7 0l77 44 70 41c3 2 5 4 5 8v100Z"/><path fill="#f5d12f" d="M2822 1741c-4-2-9-4-12-7-2-1-4-4-4-6v-170c0-2 1-4 3-5l34-20 34-20 34-19 44-26c3-2 6-2 9-1l52 30 53 31 41 23c3 2 4 4 4 8v168c1 4-1 6-4 8l-59 34-49 29-37 21h-9l-37-22-45-25-33-20-19-11Zm-1225 295c-4-2-9-4-12-7-2-1-4-4-4-6v-170c0-2 1-4 3-5l34-20 34-20 34-19 44-26c3-2 6-2 9-1l52 30 53 31 41 23c3 2 4 4 4 8v168c1 4-1 6-4 8l-59 34-49 29-37 21h-9l-37-22-45-25-33-20-19-11Z"/><path fill="#f5d12f" d="M3467 988v151c0 5-2 9-6 11l-106 61-38 22c-4 3-7 2-11 0l-63-36-84-49c-1-1-3-3-3-5V974c0-5 1-8 6-11l79-46 67-38h7l101 58 47 27c3 2 4 5 4 9v15Zm-1472-96-60-35c-3-2-4-4-4-8V680c0-3 1-6 4-8l59-34 66-37 22-13c4-2 7-2 10 0l71 41 70 41 4 2c4 2 5 5 5 9v168c0 4-1 6-5 8l-120 70-26 15c-3 2-6 2-9 0l-72-41-15-9Zm835 610-40 24c-2 1-6 1-8-1l-90-52-56-32c-4-2-5-4-5-8v-168c0-5 1-7 5-10l122-70 25-14h7l67 38 66 38 16 10c2 1 3 5 3 7v167c0 6-2 8-6 11l-82 47-24 13Zm554-1166 77 44c4 2 6 5 6 10v166c0 5-2 8-6 11l-69 39-70 41c-8 5-13 5-21 0l-64-37-55-32-21-12c-4-2-5-4-5-8V389c0-4 1-6 4-8l54-31 54-31 38-22c4-3 8-2 12 0l66 39Zm-488 312 40 23c4 3 6 6 6 11v167c0 4-1 6-4 8l-92 53-55 32c-3 2-6 2-9 0l-93-54-53-30c-4-3-5-5-5-9V689c0-18-3-12 13-21l101-59 36-21c4-2 7-2 10 0l74 42 31 18Zm-90-166v-92c0-5 1-8 5-10l90-52 55-31c3-3 7-3 11-1l82 48 63 37c3 1 5 3 5 7v170c0 3-2 6-4 7l-53 31-60 34-36 21h-6l-72-42-75-43c-4-2-6-5-6-10l1-74Zm-140 723-50 29c-4 2-6 1-10-1l-60-34-59-34-27-16c-3-2-4-4-4-8V974c0-5 2-9 7-11l97-57 48-27h7l75 43 59 34 12 7c4 2 6 6 6 10v166c0 5-1 8-6 11l-54 31-41 24Zm451-100v34c0 5-2 8-6 11l-48 28-88 50c-3 2-7 5-11 6h-6l-68-39-56-32-25-15c-2-1-3-4-3-6V973c0-4 1-7 5-9l66-38 80-47c3-2 6-1 9 0l53 31 93 54c4 2 5 5 5 10v131Zm-700 19v17c0 4-1 6-4 8l-66 38-81 46c-3 2-6 3-9 1l-59-35-37-21-51-29c-3-2-4-5-4-8V975c0-6 2-10 7-13l92-52 52-31h8l85 49 59 34c6 3 8 7 8 14v148Zm-463-496-38 22c-4 2-6 2-9 0l-45-25-66-38-36-21c-3-2-4-5-4-9V388c0-4 1-6 4-7l111-64 34-20c4-3 8-3 12 0l76 44 69 40c3 1 5 3 5 7v169c0 5-2 7-6 9l-107 62Zm566 5 60 35c9 5 12 10 12 20v160c0 5-1 8-5 10l-67 38-75 44c-6 3-11 4-17 0l-50-29-37-21-56-33c-3-1-4-4-4-8V681c0-5 2-7 5-9l103-60 42-24c4-2 7-2 11 0l74 43 4 2Zm632 302-13 8c-1 1-4 0-6-1l-62-35-56-32-31-18c-2-2-3-5-3-7V680c0-4 1-6 5-8l53-31 91-52c5-3 8-3 13 0l60 34 73 43 10 5c4 2 6 5 6 10v168c0 4-1 7-6 9l-89 52-45 25Zm63-619-72 41c-5 3-8 3-13 1l-102-59-42-25c-4-2-6-4-5-8V100c0-6 1-9 6-12l98-57 47-27c3-2 6-1 9 0l85 50 61 35c3 2 5 4 5 7v169c0 6-3 8-8 11l-69 40Zm77 1090v25c0 5-2 8-6 10l-67 39-71 41-7 4c-3 1-7 2-9 0l-63-36-71-41-13-8-4-7v-167c0-5 1-8 6-11l108-63 38-21h7l66 38 81 46c4 3 5 5 5 10v141Zm-1536-298-1-133c0-6 2-9 7-12l59-34 76-44c4-2 7-5 11-6h7l53 31 59 34 37 21 3 4v171c0 4-1 7-5 9l-60 35-71 41-16 9c-2 1-6 1-8-1l-81-46-66-38c-3-2-4-5-4-8v-33ZM2940 91l2 6v169c0 4-2 7-5 8l-101 58-44 26c-4 3-7 2-11 0l-145-84c-4-1-5-4-5-8V97c0-4 1-6 4-8l92-53 56-32c3-2 5-1 8 0l72 42 77 45Z"/><path fill="#f5d12f" d="M16 1740c-4-2-9-4-12-7-2-1-4-4-4-6v-170c0-2 1-4 3-5l34-20 34-20 34-19 44-26c3-2 6-2 9-1l52 30 53 31 41 23c3 2 4 4 4 8v168c1 4-1 6-4 8l-59 34-49 29-37 21h-9l-37-22-45-25-33-20-19-11ZM1596 280c-4-2-9-4-12-7-2-1-4-4-4-6V97c0-2 1-4 3-5l34-20 34-20 34-19 44-26c3-2 6-2 9-1l52 30 53 31 41 23c3 2 4 4 4 8v168c1 4-1 6-4 8l-59 34-49 29-37 21h-9l-37-22-45-25-33-20-19-11Z"/><path fill="#f5d12f" d="m939 340 70 40c3 2 5 5 5 9v168c0 5-2 7-6 9l-92 54-52 30c-4 3-8 2-12-1l-72-41-70-41c-6-3-7-7-7-13V389c0-4 1-7 4-8l112-65 33-19c4-2 7-3 11-1l74 43 2 1Zm-310-11-50-28-45-26c-4-2-7-5-7-11l1-166c0-4 1-7 5-10L679 4h8l72 42 54 31 22 13c2 1 4 4 4 6v170c0 4-2 7-5 9l-104 59-41 24c-4 2-7 2-11 0l-49-29Zm-46 1141-50-29c-4-2-5-5-5-9v-168c0-4 1-6 4-8l105-60 42-25c3-2 6-2 9 0l147 85c3 2 4 4 4 7v170c0 4-2 7-6 8l-112 66-33 18c-3 2-7 1-10 0l-77-45-18-10ZM489 197v68c0 5-2 8-5 10l-114 65-31 18c-4 3-8 2-11 0l-98-56-47-28c-4-2-5-4-5-8V99c0-5 1-8 6-11l105-61 41-23c2-1 4-2 7 0l77 44 70 41c3 2 5 4 5 8v100Zm0 1166v68c0 5-2 8-5 10l-114 65-31 18c-4 3-8 2-11 0l-98-56-47-28c-4-2-5-4-5-8v-167c0-5 1-8 6-11l105-61 41-23c2-1 4-2 7 0l77 44 70 41c3 2 5 4 5 8v100Zm1225-375v151c0 5-2 9-6 11l-106 61-38 22c-4 3-7 2-11 0l-63-36-84-49c-1-1-3-3-3-5V974c0-5 1-8 6-11l79-46 67-38h7l101 58 47 27c3 2 4 5 4 9v15ZM242 892l-60-35c-3-2-4-4-4-8V680c0-3 1-6 4-8l59-34 66-37 22-13c4-2 7-2 10 0l71 41 70 41 4 2c4 2 5 5 5 9v168c0 4-1 6-5 8l-120 70-26 15c-3 2-6 2-9 0l-72-41-15-9Zm835 610-40 24c-2 1-6 1-8-1l-90-52-56-32c-4-2-5-4-5-8v-168c0-5 1-7 5-10l122-70 25-14h7l67 38 66 38 16 10c2 1 3 5 3 7v167c0 6-2 8-6 11l-82 47-24 13Zm554-1166 77 44c4 2 6 5 6 10v166c0 5-2 8-6 11l-69 39-70 41c-8 5-13 5-21 0l-64-37-55-32-21-12c-4-2-5-4-5-8V389c0-4 1-6 4-8l54-31 54-31 38-22c4-3 8-2 12 0l66 39Zm-488 312 40 23c4 3 6 6 6 11v167c0 4-1 6-4 8l-92 53-55 32c-3 2-6 2-9 0l-93-54-53-30c-4-3-5-5-5-9V689c0-18-3-12 13-21l101-59 36-21c4-2 7-2 10 0l74 42 31 18Zm-90-166v-92c0-5 1-8 5-10l90-52 55-31c3-3 7-3 11-1l82 48 63 37c3 1 5 3 5 7v170c0 3-2 6-4 7l-53 31-60 34-36 21h-6l-72-42-75-43c-4-2-6-5-6-10l1-74Zm-140 723-50 29c-4 2-6 1-10-1l-60-34-59-34-27-16c-3-2-4-4-4-8V974c0-5 2-9 7-11l97-57 48-27h7l75 43 59 34 12 7c4 2 6 6 6 10v166c0 5-1 8-6 11l-54 31-41 24Zm451-100v34c0 5-2 8-6 11l-48 28-88 50c-3 2-7 5-11 6h-6l-68-39-56-32-25-15c-2-1-3-4-3-6V973c0-4 1-7 5-9l66-38 80-47c3-2 6-1 9 0l53 31 93 54c4 2 5 5 5 10v131Zm-700 19v17c0 4-1 6-4 8l-66 38-81 46c-3 2-6 3-9 1l-59-35-37-21-51-29c-3-2-4-5-4-8V975c0-6 2-10 7-13l92-52 52-31h8l85 49 59 34c6 3 8 7 8 14v148ZM201 628l-38 22c-4 2-6 2-9 0l-45-25-66-38-36-21c-3-2-4-5-4-9V388c0-4 1-6 4-7l111-64 34-20c4-3 8-3 12 0l76 44 69 40c3 1 5 3 5 7v169c0 5-2 7-6 9l-107 62Zm566 5 60 35c9 5 12 10 12 20v160c0 5-1 8-5 10l-67 38-75 44c-6 3-11 4-17 0l-50-29-37-21-56-33c-3-1-4-4-4-8V681c0-5 2-7 5-9l103-60 42-24c4-2 7-2 11 0l74 43 4 2Zm632 302-13 8c-1 1-4 0-6-1l-62-35-56-32-31-18c-2-2-3-5-3-7V680c0-4 1-6 5-8l53-31 91-52c5-3 8-3 13 0l60 34 73 43 10 5c4 2 6 5 6 10v168c0 4-1 7-6 9l-89 52-45 25Zm63-619-72 41c-5 3-8 3-13 1l-102-59-42-25c-4-2-6-4-5-8V100c0-6 1-9 6-12l98-57 47-27c3-2 6-1 9 0l85 50 61 35c3 2 5 4 5 7v169c0 6-3 8-8 11l-69 40Zm77 1090v25c0 5-2 8-6 10l-67 39-71 41-7 4c-3 1-7 2-9 0l-63-36-71-41-13-8-4-7v-167c0-5 1-8 6-11l108-63 38-21h7l66 38 81 46c4 3 5 5 5 10v141ZM3 1108 2 975c0-6 2-9 7-12l59-34 76-44c4-2 7-5 11-6h7l53 31 59 34 37 21 3 4v171c0 4-1 7-5 9l-60 35-71 41-16 9c-2 1-6 1-8-1l-81-46-66-38c-3-2-4-5-4-8v-33ZM1187 91l2 6v169c0 4-2 7-5 8l-101 58-44 26c-4 3-7 2-11 0l-145-84c-4-1-5-4-5-8V97c0-4 1-6 4-8l92-53 56-32c3-2 5-1 8 0l72 42 77 45Z"/><path fill="#f5d12f" d="M1597 861c-4-2-9-4-12-7-2-1-4-4-4-6V678c0-2 1-4 3-5l34-20 34-20 34-19 44-26c3-2 6-2 9-1l52 30 53 31 41 23c3 2 4 4 4 8v168c1 4-1 6-4 8l-59 34-49 29-37 21h-9l-37-22-45-25-33-20-19-11ZM370 571c-4-2-9-4-12-7-2-1-4-4-4-6V388c0-2 1-4 3-5l34-20 34-20 34-19 44-26c3-2 6-2 9-1l52 30 53 31 41 23c3 2 4 4 4 8v168c1 4-1 6-4 8l-59 34-49 29-37 21h-9l-37-22-45-25-33-20-19-11Z"/><path fill="#f5d12f" d="m4446 2096 70 40c3 2 5 5 5 9v168c0 5-2 7-6 9l-92 54-52 30c-4 3-8 2-12-1l-72-41-70-41c-6-3-7-7-7-13v-165c0-4 1-7 4-8l112-65 33-19c4-2 7-3 11-1l74 43 2 1Zm-310-11-50-28-45-26c-4-2-7-5-7-11l1-166c0-4 1-7 5-10l146-84h8l72 42 54 31 22 13c2 1 4 4 4 6v170c0 4-2 7-5 9l-104 59-41 24c-4 2-7 2-11 0l-49-29Zm-46 1141-50-29c-4-2-5-5-5-9v-168c0-4 1-6 4-8l105-60 42-25c3-2 6-2 9 0l147 85c3 2 4 4 4 7v170c0 4-2 7-6 8l-112 66-33 18c-3 2-7 1-10 0l-77-45-18-10Zm-94-1273v68c0 5-2 8-5 10l-114 65-31 18c-4 3-8 2-11 0l-98-56-47-28c-4-2-5-4-5-8v-167c0-5 1-8 6-11l105-61 41-23c2-1 4-2 7 0l77 44 70 41c3 2 5 4 5 8v100Zm0 1166v68c0 5-2 8-5 10l-114 65-31 18c-4 3-8 2-11 0l-98-56-47-28c-4-2-5-4-5-8v-167c0-5 1-8 6-11l105-61 41-23c2-1 4-2 7 0l77 44 70 41c3 2 5 4 5 8v100Z"/><path fill="#f5d12f" d="M4229 1740c-4-2-9-4-12-7-2-1-4-4-4-6v-170c0-2 1-4 3-5l34-20 34-20 34-19 44-26c3-2 6-2 9-1l52 30 53 31 41 23c3 2 4 4 4 8v168c1 4-1 6-4 8l-59 34-49 29-37 21h-9l-37-22-45-25-33-20-19-11Zm-879 880c-4-2-9-4-12-7-2-1-4-4-4-6v-170c0-2 1-4 3-5l34-20 34-20 34-19 44-26c3-2 6-2 9-1l52 30 53 31 41 23c3 2 4 4 4 8v168c1 4-1 6-4 8l-59 34-49 29-37 21h-9l-37-22-45-25-33-20-19-11Zm-2284 877c-4-2-9-4-12-7-2-1-4-4-4-6v-170c0-2 1-4 3-5l34-20 34-20 34-19 44-26c3-2 6-2 9-1l52 30 53 31 41 23c3 2 4 4 4 8v168c1 4-1 6-4 8l-59 34-49 29-37 21h-9l-37-22-45-25-33-20-19-11Zm3863-1757c-4-2-9-4-12-7-2-1-4-4-4-6v-170c0-2 1-4 3-5l34-20 34-20 34-19 44-26c3-2 6-2 9-1l52 30 53 31 41 23c3 2 4 4 4 8v168c1 4-1 6-4 8l-59 34-49 29-37 21h-9l-37-22-45-25-33-20-19-11Z"/><path fill="#f5d12f" d="M5221 2744v151c0 5-2 9-6 11l-106 61-38 22c-4 3-7 2-11 0l-63-36-84-49c-1-1-3-3-3-5v-169c0-5 1-8 6-11l79-46 67-38h7l101 58 47 27c3 2 4 5 4 9v15Zm-1472-96-60-35c-3-2-4-4-4-8v-169c0-3 1-6 4-8l59-34 66-37 22-13c4-2 7-2 10 0l71 41 70 41 4 2c4 2 5 5 5 9v168c0 4-1 6-5 8l-120 70-26 15c-3 2-6 2-9 0l-72-41-15-9Zm835 610-40 24c-2 1-6 1-8-1l-90-52-56-32c-4-2-5-4-5-8v-168c0-5 1-7 5-10l122-70 25-14h7l67 38 66 38 16 10c2 1 3 5 3 7v167c0 6-2 8-6 11l-82 47-24 13Zm554-1166 77 44c4 2 6 5 6 10v166c0 5-2 8-6 11l-69 39-70 41c-8 5-13 5-21 0l-64-37-55-32-21-12c-4-2-5-4-5-8v-169c0-4 1-6 4-8l54-31 54-31 38-22c4-3 8-2 12 0l66 39Zm-488 312 40 23c4 3 6 6 6 11v167c0 4-1 6-4 8l-92 53-55 32c-3 2-6 2-9 0l-93-54-53-30c-4-3-5-5-5-9v-160c0-18-3-12 13-21l101-59 36-21c4-2 7-2 10 0l74 42 31 18Zm-90-166v-92c0-5 1-8 5-10l90-52 55-31c3-3 7-3 11-1l82 48 63 37c3 1 5 3 5 7v170c0 3-2 6-4 7l-53 31-60 34-36 21h-6l-72-42-75-43c-4-2-6-5-6-10l1-74Zm-140 723-50 29c-4 2-6 1-10-1l-60-34-59-34-27-16c-3-2-4-4-4-8v-167c0-5 2-9 7-11l97-57 48-27h7l75 43 59 34 12 7c4 2 6 6 6 10v166c0 5-1 8-6 11l-54 31-41 24Zm451-100v34c0 5-2 8-6 11l-48 28-88 50c-3 2-7 5-11 6h-6l-68-39-56-32-25-15c-2-1-3-4-3-6v-169c0-4 1-7 5-9l66-38 80-47c3-2 6-1 9 0l53 31 93 54c4 2 5 5 5 10v131Zm-700 19v17c0 4-1 6-4 8l-66 38-81 46c-3 2-6 3-9 1l-59-35-37-21-51-29c-3-2-4-5-4-8v-166c0-6 2-10 7-13l92-52 52-31h8l85 49 59 34c6 3 8 7 8 14v148Zm-463-496-38 22c-4 2-6 2-9 0l-45-25-66-38-36-21c-3-2-4-5-4-9v-169c0-4 1-6 4-7l111-64 34-20c4-3 8-3 12 0l76 44 69 40c3 1 5 3 5 7v169c0 5-2 7-6 9l-107 62Zm566 5 60 35c9 5 12 10 12 20v160c0 5-1 8-5 10l-67 38-75 44c-6 3-11 4-17 0l-50-29-37-21-56-33c-3-1-4-4-4-8v-168c0-5 2-7 5-9l103-60 42-24c4-2 7-2 11 0l74 43 4 2Zm632 302-13 8c-1 1-4 0-6-1l-62-35-56-32-31-18c-2-2-3-5-3-7v-170c0-4 1-6 5-8l53-31 91-52c5-3 8-3 13 0l60 34 73 43 10 5c4 2 6 5 6 10v168c0 4-1 7-6 9l-89 52-45 25Zm63-619-72 41c-5 3-8 3-13 1l-102-59-42-25c-4-2-6-4-5-8v-166c0-6 1-9 6-12l98-57 47-27c3-2 6-1 9 0l85 50 61 35c3 2 5 4 5 7v169c0 6-3 8-8 11l-69 40Zm77 1090v25c0 5-2 8-6 10l-67 39-71 41-7 4c-3 1-7 2-9 0l-63-36-71-41-13-8-4-7v-167c0-5 1-8 6-11l108-63 38-21h7l66 38 81 46c4 3 5 5 5 10v141Zm-1536-298-1-133c0-6 2-9 7-12l59-34 76-44c4-2 7-5 11-6h7l53 31 59 34 37 21 3 4v171c0 4-1 7-5 9l-60 35-71 41-16 9c-2 1-6 1-8-1l-81-46-66-38c-3-2-4-5-4-8v-33Zm1184-1017 2 6v169c0 4-2 7-5 8l-101 58-44 26c-4 3-7 2-11 0l-145-84c-4-1-5-4-5-8v-169c0-4 1-6 4-8l92-53 56-32c3-2 5-1 8 0l72 42 77 45Z"/><path fill="#f5d12f" d="M3350 3202c-4-2-9-4-12-7-2-1-4-4-4-6v-170c0-2 1-4 3-5l34-20 34-20 34-19 44-26c3-2 6-2 9-1l52 30 53 31 41 23c3 2 4 4 4 8v168c1 4-1 6-4 8l-59 34-49 29-37 21h-9l-37-22-45-25-33-20-19-11Zm1577 294c-4-2-9-4-12-7-2-1-4-4-4-6v-170c0-2 1-4 3-5l34-20 34-20 34-19 44-26c3-2 6-2 9-1l52 30 53 31 41 23c3 2 4 4 4 8v168c1 4-1 6-4 8l-59 34-49 29-37 21h-9l-37-22-45-25-33-20-19-11ZM3877 2327c-4-2-9-4-12-7-2-1-4-4-4-6v-170c0-2 1-4 3-5l34-20 34-20 34-19 44-26c3-2 6-2 9-1l52 30 53 31 41 23c3 2 4 4 4 8v168c1 4-1 6-4 8l-59 34-49 29-37 21h-9l-37-22-45-25-33-20-19-11Zm-527 2631c-4-2-9-4-12-7-2-1-4-4-4-6v-170c0-2 1-4 3-5l34-20 34-20 34-19 44-26c3-2 6-2 9-1l52 30 53 31 41 23c3 2 4 4 4 8v168c1 4-1 6-4 8l-59 34-49 29-37 21h-9l-37-22-45-25-33-20-19-11Z"/><path fill="#f5d12f" d="m4446 340 70 40c3 2 5 5 5 9v168c0 5-2 7-6 9l-92 54-52 30c-4 3-8 2-12-1l-72-41-70-41c-6-3-7-7-7-13V389c0-4 1-7 4-8l112-65 33-19c4-2 7-3 11-1l74 43 2 1Zm-310-11-50-28-45-26c-4-2-7-5-7-11l1-166c0-4 1-7 5-10l146-84h8l72 42 54 31 22 13c2 1 4 4 4 6v170c0 4-2 7-5 9l-104 59-41 24c-4 2-7 2-11 0l-49-29Zm-46 1141-50-29c-4-2-5-5-5-9v-168c0-4 1-6 4-8l105-60 42-25c3-2 6-2 9 0l147 85c3 2 4 4 4 7v170c0 4-2 7-6 8l-112 66-33 18c-3 2-7 1-10 0l-77-45-18-10Zm-94-1273v68c0 5-2 8-5 10l-114 65-31 18c-4 3-8 2-11 0l-98-56-47-28c-4-2-5-4-5-8V99c0-5 1-8 6-11l105-61 41-23c2-1 4-2 7 0l77 44 70 41c3 2 5 4 5 8v100Zm0 1166v68c0 5-2 8-5 10l-114 65-31 18c-4 3-8 2-11 0l-98-56-47-28c-4-2-5-4-5-8v-167c0-5 1-8 6-11l105-61 41-23c2-1 4-2 7 0l77 44 70 41c3 2 5 4 5 8v100Z"/><path fill="#f5d12f" d="M1595 1442c-4-2-9-4-12-7-2-1-4-4-4-6v-170c0-2 1-4 3-5l34-20 34-20 34-19 44-26c3-2 6-2 9-1l52 30 53 31 41 23c3 2 4 4 4 8v168c1 4-1 6-4 8l-59 34-49 29-37 21h-9l-37-22-45-25-33-20-19-11Zm2284 298c-4-2-9-4-12-7-2-1-4-4-4-6v-170c0-2 1-4 3-5l34-20 34-20 34-19 44-26c3-2 6-2 9-1l52 30 53 31 41 23c3 2 4 4 4 8v168c1 4-1 6-4 8l-59 34-49 29-37 21h-9l-37-22-45-25-33-20-19-11Zm350 1756c-4-2-9-4-12-7-2-1-4-4-4-6v-170c0-2 1-4 3-5l34-20 34-20 34-19 44-26c3-2 6-2 9-1l52 30 53 31 41 23c3 2 4 4 4 8v168c1 4-1 6-4 8l-59 34-49 29-37 21h-9l-37-22-45-25-33-20-19-11Z"/><path fill="#f5d12f" d="M5221 988v151c0 5-2 9-6 11l-106 61-38 22c-4 3-7 2-11 0l-63-36-84-49c-1-1-3-3-3-5V974c0-5 1-8 6-11l79-46 67-38h7l101 58 47 27c3 2 4 5 4 9v15Zm-1472-96-60-35c-3-2-4-4-4-8V680c0-3 1-6 4-8l59-34 66-37 22-13c4-2 7-2 10 0l71 41 70 41 4 2c4 2 5 5 5 9v168c0 4-1 6-5 8l-120 70-26 15c-3 2-6 2-9 0l-72-41-15-9Zm835 610-40 24c-2 1-6 1-8-1l-90-52-56-32c-4-2-5-4-5-8v-168c0-5 1-7 5-10l122-70 25-14h7l67 38 66 38 16 10c2 1 3 5 3 7v167c0 6-2 8-6 11l-82 47-24 13Zm554-1166 77 44c4 2 6 5 6 10v166c0 5-2 8-6 11l-69 39-70 41c-8 5-13 5-21 0l-64-37-55-32-21-12c-4-2-5-4-5-8V389c0-4 1-6 4-8l54-31 54-31 38-22c4-3 8-2 12 0l66 39Zm-488 312 40 23c4 3 6 6 6 11v167c0 4-1 6-4 8l-92 53-55 32c-3 2-6 2-9 0l-93-54-53-30c-4-3-5-5-5-9V689c0-18-3-12 13-21l101-59 36-21c4-2 7-2 10 0l74 42 31 18Zm-90-166v-92c0-5 1-8 5-10l90-52 55-31c3-3 7-3 11-1l82 48 63 37c3 1 5 3 5 7v170c0 3-2 6-4 7l-53 31-60 34-36 21h-6l-72-42-75-43c-4-2-6-5-6-10l1-74Zm-140 723-50 29c-4 2-6 1-10-1l-60-34-59-34-27-16c-3-2-4-4-4-8V974c0-5 2-9 7-11l97-57 48-27h7l75 43 59 34 12 7c4 2 6 6 6 10v166c0 5-1 8-6 11l-54 31-41 24Zm451-100v34c0 5-2 8-6 11l-48 28-88 50c-3 2-7 5-11 6h-6l-68-39-56-32-25-15c-2-1-3-4-3-6V973c0-4 1-7 5-9l66-38 80-47c3-2 6-1 9 0l53 31 93 54c4 2 5 5 5 10v131Zm-700 19v17c0 4-1 6-4 8l-66 38-81 46c-3 2-6 3-9 1l-59-35-37-21-51-29c-3-2-4-5-4-8V975c0-6 2-10 7-13l92-52 52-31h8l85 49 59 34c6 3 8 7 8 14v148Zm-463-496-38 22c-4 2-6 2-9 0l-45-25-66-38-36-21c-3-2-4-5-4-9V388c0-4 1-6 4-7l111-64 34-20c4-3 8-3 12 0l76 44 69 40c3 1 5 3 5 7v169c0 5-2 7-6 9l-107 62Zm566 5 60 35c9 5 12 10 12 20v160c0 5-1 8-5 10l-67 38-75 44c-6 3-11 4-17 0l-50-29-37-21-56-33c-3-1-4-4-4-8V681c0-5 2-7 5-9l103-60 42-24c4-2 7-2 11 0l74 43 4 2Zm632 302-13 8c-1 1-4 0-6-1l-62-35-56-32-31-18c-2-2-3-5-3-7V680c0-4 1-6 5-8l53-31 91-52c5-3 8-3 13 0l60 34 73 43 10 5c4 2 6 5 6 10v168c0 4-1 7-6 9l-89 52-45 25Zm63-619-72 41c-5 3-8 3-13 1l-102-59-42-25c-4-2-6-4-5-8V100c0-6 1-9 6-12l98-57 47-27c3-2 6-1 9 0l85 50 61 35c3 2 5 4 5 7v169c0 6-3 8-8 11l-69 40Zm77 1090v25c0 5-2 8-6 10l-67 39-71 41-7 4c-3 1-7 2-9 0l-63-36-71-41-13-8-4-7v-167c0-5 1-8 6-11l108-63 38-21h7l66 38 81 46c4 3 5 5 5 10v141Zm-1536-298-1-133c0-6 2-9 7-12l59-34 76-44c4-2 7-5 11-6h7l53 31 59 34 37 21 3 4v171c0 4-1 7-5 9l-60 35-71 41-16 9c-2 1-6 1-8-1l-81-46-66-38c-3-2-4-5-4-8v-33ZM4694 91l2 6v169c0 4-2 7-5 8l-101 58-44 26c-4 3-7 2-11 0l-145-84c-4-1-5-4-5-8V97c0-4 1-6 4-8l92-53 56-32c3-2 5-1 8 0l72 42 77 45Z"/><path fill="#f5d12f" d="M3351 280c-4-2-9-4-12-7-2-1-4-4-4-6V97c0-2 1-4 3-5l34-20 34-20 34-19 44-26c3-2 6-2 9-1l52 30 53 31 41 23c3 2 4 4 4 8v168c1 4-1 6-4 8l-59 34-49 29-37 21h-9l-37-22-45-25-33-20-19-11Zm-2 584c-4-2-9-4-12-7-2-1-4-4-4-6V681c0-2 1-4 3-5l34-20 34-20 34-19 44-26c3-2 6-2 9-1l52 30 53 31 41 23c3 2 4 4 4 8v168c1 4-1 6-4 8l-59 34-49 29-37 21h-9l-37-22-45-25-33-20-19-11Zm528-293c-4-2-9-4-12-7-2-1-4-4-4-6V388c0-2 1-4 3-5l34-20 34-20 34-19 44-26c3-2 6-2 9-1l52 30 53 31 41 23c3 2 4 4 4 8v168c1 4-1 6-4 8l-59 34-49 29-37 21h-9l-37-22-45-25-33-20-19-11Z"/><path fill="#f5d12f" d="m4445 3852 70 40c3 2 5 5 5 9v168c0 5-2 7-6 9l-92 54-52 30c-4 3-8 2-12-1l-72-41-70-41c-6-3-7-7-7-13v-165c0-4 1-7 4-8l112-65 33-19c4-2 7-3 11-1l74 43 2 1Zm-310-11-50-28-45-26c-4-2-7-5-7-11l1-166c0-4 1-7 5-10l146-84h8l72 42 54 31 22 13c2 1 4 4 4 6v170c0 4-2 7-5 9l-104 59-41 24c-4 2-7 2-11 0l-49-29Zm-46 1141-50-29c-4-2-5-5-5-9v-168c0-4 1-6 4-8l105-60 42-25c3-2 6-2 9 0l147 85c3 2 4 4 4 7v170c0 4-2 7-6 8l-112 66-33 18c-3 2-7 1-10 0l-77-45-18-10Zm-94-1273v68c0 5-2 8-5 10l-114 65-31 18c-4 3-8 2-11 0l-98-56-47-28c-4-2-5-4-5-8v-167c0-5 1-8 6-11l105-61 41-23c2-1 4-2 7 0l77 44 70 41c3 2 5 4 5 8v100Zm0 1166v68c0 5-2 8-5 10l-114 65-31 18c-4 3-8 2-11 0l-98-56-47-28c-4-2-5-4-5-8v-167c0-5 1-8 6-11l105-61 41-23c2-1 4-2 7 0l77 44 70 41c3 2 5 4 5 8v100Z"/><path fill="#f5d12f" d="M3351 1445c-4-2-9-4-12-7-2-1-4-4-4-6v-170c0-2 1-4 3-5l34-20 34-20 34-19 44-26c3-2 6-2 9-1l52 30 53 31 41 23c3 2 4 4 4 8v168c1 4-1 6-4 8l-59 34-49 29-37 21h-9l-37-22-45-25-33-20-19-11Zm1227 295c-4-2-9-4-12-7-2-1-4-4-4-6v-170c0-2 1-4 3-5l34-20 34-20 34-19 44-26c3-2 6-2 9-1l52 30 53 31 41 23c3 2 4 4 4 8v168c1 4-1 6-4 8l-59 34-49 29-37 21h-9l-37-22-45-25-33-20-19-11ZM3351 3789c-4-2-9-4-12-7-2-1-4-4-4-6v-170c0-2 1-4 3-5l34-20 34-20 34-19 44-26c3-2 6-2 9-1l52 30 53 31 41 23c3 2 4 4 4 8v168c1 4-1 6-4 8l-59 34-49 29-37 21h-9l-37-22-45-25-33-20-19-11Zm527-292c-4-2-9-4-12-7-2-1-4-4-4-6v-170c0-2 1-4 3-5l34-20 34-20 34-19 44-26c3-2 6-2 9-1l52 30 53 31 41 23c3 2 4 4 4 8v168c1 4-1 6-4 8l-59 34-49 29-37 21h-9l-37-22-45-25-33-20-19-11Z"/><path fill="#f5d12f" d="M5220 4500v151c0 5-2 9-6 11l-106 61-38 22c-4 3-7 2-11 0l-63-36-84-49c-1-1-3-3-3-5v-169c0-5 1-8 6-11l79-46 67-38h7l101 58 47 27c3 2 4 5 4 9v15Zm-1472-96-60-35c-3-2-4-4-4-8v-169c0-3 1-6 4-8l59-34 66-37 22-13c4-2 7-2 10 0l71 41 70 41 4 2c4 2 5 5 5 9v168c0 4-1 6-5 8l-120 70-26 15c-3 2-6 2-9 0l-72-41-15-9Zm835 610-40 24c-2 1-6 1-8-1l-90-52-56-32c-4-2-5-4-5-8v-168c0-5 1-7 5-10l122-70 25-14h7l67 38 66 38 16 10c2 1 3 5 3 7v167c0 6-2 8-6 11l-82 47-24 13Zm554-1166 77 44c4 2 6 5 6 10v166c0 5-2 8-6 11l-69 39-70 41c-8 5-13 5-21 0l-64-37-55-32-21-12c-4-2-5-4-5-8v-169c0-4 1-6 4-8l54-31 54-31 38-22c4-3 8-2 12 0l66 39Zm-488 312 40 23c4 3 6 6 6 11v167c0 4-1 6-4 8l-92 53-55 32c-3 2-6 2-9 0l-93-54-53-30c-4-3-5-5-5-9v-160c0-18-3-12 13-21l101-59 36-21c4-2 7-2 10 0l74 42 31 18Zm-90-166v-92c0-5 1-8 5-10l90-52 55-31c3-3 7-3 11-1l82 48 63 37c3 1 5 3 5 7v170c0 3-2 6-4 7l-53 31-60 34-36 21h-6l-72-42-75-43c-4-2-6-5-6-10l1-74Zm-140 723-50 29c-4 2-6 1-10-1l-60-34-59-34-27-16c-3-2-4-4-4-8v-167c0-5 2-9 7-11l97-57 48-27h7l75 43 59 34 12 7c4 2 6 6 6 10v166c0 5-1 8-6 11l-54 31-41 24Zm451-100v34c0 5-2 8-6 11l-48 28-88 50c-3 2-7 5-11 6h-6l-68-39-56-32-25-15c-2-1-3-4-3-6v-169c0-4 1-7 5-9l66-38 80-47c3-2 6-1 9 0l53 31 93 54c4 2 5 5 5 10v131Zm-700 19v17c0 4-1 6-4 8l-66 38-81 46c-3 2-6 3-9 1l-59-35-37-21-51-29c-3-2-4-5-4-8v-166c0-6 2-10 7-13l92-52 52-31h8l85 49 59 34c6 3 8 7 8 14v148Zm-463-496-38 22c-4 2-6 2-9 0l-45-25-66-38-36-21c-3-2-4-5-4-9v-169c0-4 1-6 4-7l111-64 34-20c4-3 8-3 12 0l76 44 69 40c3 1 5 3 5 7v169c0 5-2 7-6 9l-107 62Zm566 5 60 35c9 5 12 10 12 20v160c0 5-1 8-5 10l-67 38-75 44c-6 3-11 4-17 0l-50-29-37-21-56-33c-3-1-4-4-4-8v-168c0-5 2-7 5-9l103-60 42-24c4-2 7-2 11 0l74 43 4 2Zm632 302-13 8c-1 1-4 0-6-1l-62-35-56-32-31-18c-2-2-3-5-3-7v-170c0-4 1-6 5-8l53-31 91-52c5-3 8-3 13 0l60 34 73 43 10 5c4 2 6 5 6 10v168c0 4-1 7-6 9l-89 52-45 25Zm63-619-72 41c-5 3-8 3-13 1l-102-59-42-25c-4-2-6-4-5-8v-166c0-6 1-9 6-12l98-57 47-27c3-2 6-1 9 0l85 50 61 35c3 2 5 4 5 7v169c0 6-3 8-8 11l-69 40Zm77 1090v25c0 5-2 8-6 10l-67 39-71 41-7 4c-3 1-7 2-9 0l-63-36-71-41-13-8-4-7v-167c0-5 1-8 6-11l108-63 38-21h7l66 38 81 46c4 3 5 5 5 10v141Zm-1536-298-1-133c0-6 2-9 7-12l59-34 76-44c4-2 7-5 11-6h7l53 31 59 34 37 21 3 4v171c0 4-1 7-5 9l-60 35-71 41-16 9c-2 1-6 1-8-1l-81-46-66-38c-3-2-4-5-4-8v-33Zm1184-1017 2 6v169c0 4-2 7-5 8l-101 58-44 26c-4 3-7 2-11 0l-145-84c-4-1-5-4-5-8v-169c0-4 1-6 4-8l92-53 56-32c3-2 5-1 8 0l72 42 77 45Z"/><path fill="#f5d12f" d="M3876 4083c-4-2-9-4-12-7-2-1-4-4-4-6v-170c0-2 1-4 3-5l34-20 34-20 34-19 44-26c3-2 6-2 9-1l52 30 53 31 41 23c3 2 4 4 4 8v168c1 4-1 6-4 8l-59 34-49 29-37 21h-9l-37-22-45-25-33-20-19-11Z"/><path fill="#f5d12f" d="m2691 3849 70 40c3 2 5 5 5 9v168c0 5-2 7-6 9l-92 54-52 30c-4 3-8 2-12-1l-72-41-70-41c-6-3-7-7-7-13v-165c0-4 1-7 4-8l112-65 33-19c4-2 7-3 11-1l74 43 2 1Zm-310-11-50-28-45-26c-4-2-7-5-7-11l1-166c0-4 1-7 5-10l146-84h8l72 42 54 31 22 13c2 1 4 4 4 6v170c0 4-2 7-5 9l-104 59-41 24c-4 2-7 2-11 0l-49-29Zm-46 1141-50-29c-4-2-5-5-5-9v-168c0-4 1-6 4-8l105-60 42-25c3-2 6-2 9 0l147 85c3 2 4 4 4 7v170c0 4-2 7-6 8l-112 66-33 18c-3 2-7 1-10 0l-77-45-18-10Zm-94-1273v68c0 5-2 8-5 10l-114 65-31 18c-4 3-8 2-11 0l-98-56-47-28c-4-2-5-4-5-8v-167c0-5 1-8 6-11l105-61 41-23c2-1 4-2 7 0l77 44 70 41c3 2 5 4 5 8v100Zm0 1166v68c0 5-2 8-5 10l-114 65-31 18c-4 3-8 2-11 0l-98-56-47-28c-4-2-5-4-5-8v-167c0-5 1-8 6-11l105-61 41-23c2-1 4-2 7 0l77 44 70 41c3 2 5 4 5 8v100Z"/><path fill="#f5d12f" d="M2123 3493c-4-2-9-4-12-7-2-1-4-4-4-6v-170c0-2 1-4 3-5l34-20 34-20 34-19 44-26c3-2 6-2 9-1l52 30 53 31 41 23c3 2 4 4 4 8v168c1 4-1 6-4 8l-59 34-49 29-37 21h-9l-37-22-45-25-33-20-19-11Zm349 4c-4-2-9-4-12-7-2-1-4-4-4-6v-170c0-2 1-4 3-5l34-20 34-20 34-19 44-26c3-2 6-2 9-1l52 30 53 31 41 23c3 2 4 4 4 8v168c1 4-1 6-4 8l-59 34-49 29-37 21h-9l-37-22-45-25-33-20-19-11Zm701-1c-4-2-9-4-12-7-2-1-4-4-4-6v-170c0-2 1-4 3-5l34-20 34-20 34-19 44-26c3-2 6-2 9-1l52 30 53 31 41 23c3 2 4 4 4 8v168c1 4-1 6-4 8l-59 34-49 29-37 21h-9l-37-22-45-25-33-20-19-11Z"/><path fill="#f5d12f" d="M3466 4497v151c0 5-2 9-6 11l-106 61-38 22c-4 3-7 2-11 0l-63-36-84-49c-1-1-3-3-3-5v-169c0-5 1-8 6-11l79-46 67-38h7l101 58 47 27c3 2 4 5 4 9v15Zm-1472-96-60-35c-3-2-4-4-4-8v-169c0-3 1-6 4-8l59-34 66-37 22-13c4-2 7-2 10 0l71 41 70 41 4 2c4 2 5 5 5 9v168c0 4-1 6-5 8l-120 70-26 15c-3 2-6 2-9 0l-72-41-15-9Zm835 610-40 24c-2 1-6 1-8-1l-90-52-56-32c-4-2-5-4-5-8v-168c0-5 1-7 5-10l122-70 25-14h7l67 38 66 38 16 10c2 1 3 5 3 7v167c0 6-2 8-6 11l-82 47-24 13Zm554-1166 77 44c4 2 6 5 6 10v166c0 5-2 8-6 11l-69 39-70 41c-8 5-13 5-21 0l-64-37-55-32-21-12c-4-2-5-4-5-8v-169c0-4 1-6 4-8l54-31 54-31 38-22c4-3 8-2 12 0l66 39Zm-488 312 40 23c4 3 6 6 6 11v167c0 4-1 6-4 8l-92 53-55 32c-3 2-6 2-9 0l-93-54-53-30c-4-3-5-5-5-9v-160c0-18-3-12 13-21l101-59 36-21c4-2 7-2 10 0l74 42 31 18Zm-90-166v-92c0-5 1-8 5-10l90-52 55-31c3-3 7-3 11-1l82 48 63 37c3 1 5 3 5 7v170c0 3-2 6-4 7l-53 31-60 34-36 21h-6l-72-42-75-43c-4-2-6-5-6-10l1-74Zm-140 723-50 29c-4 2-6 1-10-1l-60-34-59-34-27-16c-3-2-4-4-4-8v-167c0-5 2-9 7-11l97-57 48-27h7l75 43 59 34 12 7c4 2 6 6 6 10v166c0 5-1 8-6 11l-54 31-41 24Zm451-100v34c0 5-2 8-6 11l-48 28-88 50c-3 2-7 5-11 6h-6l-68-39-56-32-25-15c-2-1-3-4-3-6v-169c0-4 1-7 5-9l66-38 80-47c3-2 6-1 9 0l53 31 93 54c4 2 5 5 5 10v131Zm-700 19v17c0 4-1 6-4 8l-66 38-81 46c-3 2-6 3-9 1l-59-35-37-21-51-29c-3-2-4-5-4-8v-166c0-6 2-10 7-13l92-52 52-31h8l85 49 59 34c6 3 8 7 8 14v148Zm-463-496-38 22c-4 2-6 2-9 0l-45-25-66-38-36-21c-3-2-4-5-4-9v-169c0-4 1-6 4-7l111-64 34-20c4-3 8-3 12 0l76 44 69 40c3 1 5 3 5 7v169c0 5-2 7-6 9l-107 62Zm566 5 60 35c9 5 12 10 12 20v160c0 5-1 8-5 10l-67 38-75 44c-6 3-11 4-17 0l-50-29-37-21-56-33c-3-1-4-4-4-8v-168c0-5 2-7 5-9l103-60 42-24c4-2 7-2 11 0l74 43 4 2Zm632 302-13 8c-1 1-4 0-6-1l-62-35-56-32-31-18c-2-2-3-5-3-7v-170c0-4 1-6 5-8l53-31 91-52c5-3 8-3 13 0l60 34 73 43 10 5c4 2 6 5 6 10v168c0 4-1 7-6 9l-89 52-45 25Zm63-619-72 41c-5 3-8 3-13 1l-102-59-42-25c-4-2-6-4-5-8v-166c0-6 1-9 6-12l98-57 47-27c3-2 6-1 9 0l85 50 61 35c3 2 5 4 5 7v169c0 6-3 8-8 11l-69 40Zm77 1090v25c0 5-2 8-6 10l-67 39-71 41-7 4c-3 1-7 2-9 0l-63-36-71-41-13-8-4-7v-167c0-5 1-8 6-11l108-63 38-21h7l66 38 81 46c4 3 5 5 5 10v141Zm-1536-298-1-133c0-6 2-9 7-12l59-34 76-44c4-2 7-5 11-6h7l53 31 59 34 37 21 3 4v171c0 4-1 7-5 9l-60 35-71 41-16 9c-2 1-6 1-8-1l-81-46-66-38c-3-2-4-5-4-8v-33Zm1184-1017 2 6v169c0 4-2 7-5 8l-101 58-44 26c-4 3-7 2-11 0l-145-84c-4-1-5-4-5-8v-169c0-4 1-6 4-8l92-53 56-32c3-2 5-1 8 0l72 42 77 45Z"/><path fill="#f5d12f" d="M3351 4375c-4-2-9-4-12-7-2-1-4-4-4-6v-170c0-2 1-4 3-5l34-20 34-20 34-19 44-26c3-2 6-2 9-1l52 30 53 31 41 23c3 2 4 4 4 8v168c1 4-1 6-4 8l-59 34-49 29-37 21h-9l-37-22-45-25-33-20-19-11Zm-1229-295c-4-2-9-4-12-7-2-1-4-4-4-6v-170c0-2 1-4 3-5l34-20 34-20 34-19 44-26c3-2 6-2 9-1l52 30 53 31 41 23c3 2 4 4 4 8v168c1 4-1 6-4 8l-59 34-49 29-37 21h-9l-37-22-45-25-33-20-19-11ZM371 1740c-4-2-9-4-12-7-2-1-4-4-4-6v-170c0-2 1-4 3-5l34-20 34-20 34-19 44-26c3-2 6-2 9-1l52 30 53 31 41 23c3 2 4 4 4 8v168c1 4-1 6-4 8l-59 34-49 29-37 21h-9l-37-22-45-25-33-20-19-11Z"/><path fill="#f5d12f" d="m937 3852 70 40c3 2 5 5 5 9v168c0 5-2 7-6 9l-92 54-52 30c-4 3-8 2-12-1l-72-41-70-41c-6-3-7-7-7-13v-165c0-4 1-7 4-8l112-65 33-19c4-2 7-3 11-1l74 43 2 1Zm-310-11-50-28-45-26c-4-2-7-5-7-11l1-166c0-4 1-7 5-10l146-84h8l72 42 54 31 22 13c2 1 4 4 4 6v170c0 4-2 7-5 9l-104 59-41 24c-4 2-7 2-11 0l-49-29Zm-46 1141-50-29c-4-2-5-5-5-9v-168c0-4 1-6 4-8l105-60 42-25c3-2 6-2 9 0l147 85c3 2 4 4 4 7v170c0 4-2 7-6 8l-112 66-33 18c-3 2-7 1-10 0l-77-45-18-10Zm-94-1273v68c0 5-2 8-5 10l-114 65-31 18c-4 3-8 2-11 0l-98-56-47-28c-4-2-5-4-5-8v-167c0-5 1-8 6-11l105-61 41-23c2-1 4-2 7 0l77 44 70 41c3 2 5 4 5 8v100Zm0 1166v68c0 5-2 8-5 10l-114 65-31 18c-4 3-8 2-11 0l-98-56-47-28c-4-2-5-4-5-8v-167c0-5 1-8 6-11l105-61 41-23c2-1 4-2 7 0l77 44 70 41c3 2 5 4 5 8v100Z"/><path fill="#f5d12f" d="M370 3496c-4-2-9-4-12-7-2-1-4-4-4-6v-170c0-2 1-4 3-5l34-20 34-20 34-19 44-26c3-2 6-2 9-1l52 30 53 31 41 23c3 2 4 4 4 8v168c1 4-1 6-4 8l-59 34-49 29-37 21h-9l-37-22-45-25-33-20-19-11ZM18 1740c-4-2-9-4-12-7-2-1-4-4-4-6v-170c0-2 1-4 3-5l34-20 34-20 34-19 44-26c3-2 6-2 9-1l52 30 53 31 41 23c3 2 4 4 4 8v168c1 4-1 6-4 8l-59 34-49 29-37 21h-9l-37-22-45-25-33-20-19-11Z"/><path fill="#f5d12f" d="M1712 4500v151c0 5-2 9-6 11l-106 61-38 22c-4 3-7 2-11 0l-63-36-84-49c-1-1-3-3-3-5v-169c0-5 1-8 6-11l79-46 67-38h7l101 58 47 27c3 2 4 5 4 9v15Zm-1472-96-60-35c-3-2-4-4-4-8v-169c0-3 1-6 4-8l59-34 66-37 22-13c4-2 7-2 10 0l71 41 70 41 4 2c4 2 5 5 5 9v168c0 4-1 6-5 8l-120 70-26 15c-3 2-6 2-9 0l-72-41-15-9Zm835 610-40 24c-2 1-6 1-8-1l-90-52-56-32c-4-2-5-4-5-8v-168c0-5 1-7 5-10l122-70 25-14h7l67 38 66 38 16 10c2 1 3 5 3 7v167c0 6-2 8-6 11l-82 47-24 13Zm554-1166 77 44c4 2 6 5 6 10v166c0 5-2 8-6 11l-69 39-70 41c-8 5-13 5-21 0l-64-37-55-32-21-12c-4-2-5-4-5-8v-169c0-4 1-6 4-8l54-31 54-31 38-22c4-3 8-2 12 0l66 39Zm-488 312 40 23c4 3 6 6 6 11v167c0 4-1 6-4 8l-92 53-55 32c-3 2-6 2-9 0l-93-54-53-30c-4-3-5-5-5-9v-160c0-18-3-12 13-21l101-59 36-21c4-2 7-2 10 0l74 42 31 18Zm-90-166v-92c0-5 1-8 5-10l90-52 55-31c3-3 7-3 11-1l82 48 63 37c3 1 5 3 5 7v170c0 3-2 6-4 7l-53 31-60 34-36 21h-6l-72-42-75-43c-4-2-6-5-6-10l1-74Zm-140 723-50 29c-4 2-6 1-10-1l-60-34-59-34-27-16c-3-2-4-4-4-8v-167c0-5 2-9 7-11l97-57 48-27h7l75 43 59 34 12 7c4 2 6 6 6 10v166c0 5-1 8-6 11l-54 31-41 24Zm451-100v34c0 5-2 8-6 11l-48 28-88 50c-3 2-7 5-11 6h-6l-68-39-56-32-25-15c-2-1-3-4-3-6v-169c0-4 1-7 5-9l66-38 80-47c3-2 6-1 9 0l53 31 93 54c4 2 5 5 5 10v131Zm-700 19v17c0 4-1 6-4 8l-66 38-81 46c-3 2-6 3-9 1l-59-35-37-21-51-29c-3-2-4-5-4-8v-166c0-6 2-10 7-13l92-52 52-31h8l85 49 59 34c6 3 8 7 8 14v148Zm-463-496-38 22c-4 2-6 2-9 0l-45-25-66-38-36-21c-3-2-4-5-4-9v-169c0-4 1-6 4-7l111-64 34-20c4-3 8-3 12 0l76 44 69 40c3 1 5 3 5 7v169c0 5-2 7-6 9l-107 62Zm566 5 60 35c9 5 12 10 12 20v160c0 5-1 8-5 10l-67 38-75 44c-6 3-11 4-17 0l-50-29-37-21-56-33c-3-1-4-4-4-8v-168c0-5 2-7 5-9l103-60 42-24c4-2 7-2 11 0l74 43 4 2Zm632 302-13 8c-1 1-4 0-6-1l-62-35-56-32-31-18c-2-2-3-5-3-7v-170c0-4 1-6 5-8l53-31 91-52c5-3 8-3 13 0l60 34 73 43 10 5c4 2 6 5 6 10v168c0 4-1 7-6 9l-89 52-45 25Zm63-619-72 41c-5 3-8 3-13 1l-102-59-42-25c-4-2-6-4-5-8v-166c0-6 1-9 6-12l98-57 47-27c3-2 6-1 9 0l85 50 61 35c3 2 5 4 5 7v169c0 6-3 8-8 11l-69 40Zm77 1090v25c0 5-2 8-6 10l-67 39-71 41-7 4c-3 1-7 2-9 0l-63-36-71-41-13-8-4-7v-167c0-5 1-8 6-11l108-63 38-21h7l66 38 81 46c4 3 5 5 5 10v141ZM1 4620l-1-133c0-6 2-9 7-12l59-34 76-44c4-2 7-5 11-6h7l53 31 59 34 37 21 3 4v171c0 4-1 7-5 9l-60 35-71 41-16 9c-2 1-6 1-8-1l-81-46-66-38c-3-2-4-5-4-8v-33Zm1184-1017 2 6v169c0 4-2 7-5 8l-101 58-44 26c-4 3-7 2-11 0l-145-84c-4-1-5-4-5-8v-169c0-4 1-6 4-8l92-53 56-32c3-2 5-1 8 0l72 42 77 45Z"/><path fill="#f5d12f" d="M18 3497c-4-2-9-4-12-7-2-1-4-4-4-6v-170c0-2 1-4 3-5l34-20 34-20 34-19 44-26c3-2 6-2 9-1l52 30 53 31 41 23c3 2 4 4 4 8v168c1 4-1 6-4 8l-59 34-49 29-37 21h-9l-37-22-45-25-33-20-19-11Zm1579 878c-4-2-9-4-12-7-2-1-4-4-4-6v-170c0-2 1-4 3-5l34-20 34-20 34-19 44-26c3-2 6-2 9-1l52 30 53 31 41 23c3 2 4 4 4 8v168c1 4-1 6-4 8l-59 34-49 29-37 21h-9l-37-22-45-25-33-20-19-11Zm1929-878c-4-2-9-4-12-7-2-1-4-4-4-6v-170c0-2 1-4 3-5l34-20 34-20 34-19 44-26c3-2 6-2 9-1l52 30 53 31 41 23c3 2 4 4 4 8v168c1 4-1 6-4 8l-59 34-49 29-37 21h-9l-37-22-45-25-33-20-19-11ZM368 4083c-4-2-9-4-12-7-2-1-4-4-4-6v-170c0-2 1-4 3-5l34-20 34-20 34-19 44-26c3-2 6-2 9-1l52 30 53 31 41 23c3 2 4 4 4 8v168c1 4-1 6-4 8l-59 34-49 29-37 21h-9l-37-22-45-25-33-20-19-11Zm1228 870c-4-2-9-4-12-7-2-1-4-4-4-6v-170c0-2 1-4 3-5l34-20 34-20 34-19 44-26c3-2 6-2 9-1l52 30 53 31 41 23c3 2 4 4 4 8v168c1 4-1 6-4 8l-59 34-49 29-37 21h-9l-37-22-45-25-33-20-19-11Z"/></svg>
